<svg xmlns="http://www.w3.org/2000/svg" xmlns:xlink="http://www.w3.org/1999/xlink" width="500" zoomAndPan="magnify" viewBox="0 0 375 374.999991" height="500" preserveAspectRatio="xMidYMid meet" version="1.0"><defs><g/><clipPath id="55a9436608"><path d="M 55 208 L 314 208 L 314 208.394531 L 55 208.394531 Z M 129.679688 208.394531 L 314 208.394531 L 314 214 L 129.679688 214 Z M 55 208.394531 L 93.578125 208.394531 L 93.578125 214 L 55 214 Z M 55 208.394531 " clip-rule="nonzero"/></clipPath></defs><rect x="-37.5" width="450" fill="#ffffff" y="-37.499999" height="449.999989" fill-opacity="1"/><rect x="-37.5" width="450" fill="#ffffff" y="-37.499999" height="449.999989" fill-opacity="1"/><g clip-path="url(#55a9436608)"><path fill="#000000" d="M 55.457031 208.820312 L 313.714844 208.820312 L 313.714844 213.9375 L 55.457031 213.9375 Z M 55.457031 208.820312 " fill-opacity="1" fill-rule="nonzero"/></g><g fill="#000000" fill-opacity="1"><g transform="translate(55.455606, 205.408406)"><g><path d="M -0.21875 0 L 15.328125 -37.765625 L 24.390625 -37.765625 L 39.703125 0 L 31.234375 0 L 27.40625 -9.921875 L 11.8125 -9.921875 L 7.9375 0 Z M 14.25 -16.1875 L 25.03125 -16.1875 L 19.6875 -30.109375 Z M 14.25 -16.1875 "/></g></g></g><g fill="#000000" fill-opacity="1"><g transform="translate(93.320059, 205.408406)"><g><path d="M 15.859375 0.15625 C 13.878906 0.15625 12.015625 -0.21875 10.265625 -0.96875 C 8.523438 -1.726562 7.015625 -2.753906 5.734375 -4.046875 C 4.460938 -5.335938 3.457031 -6.851562 2.71875 -8.59375 C 1.988281 -10.34375 1.625 -12.226562 1.625 -14.25 C 1.625 -16.226562 2 -18.085938 2.75 -19.828125 C 3.507812 -21.566406 4.535156 -23.082031 5.828125 -24.375 C 7.117188 -25.675781 8.644531 -26.695312 10.40625 -27.4375 C 12.175781 -28.175781 14.066406 -28.546875 16.078125 -28.546875 C 17.484375 -28.546875 18.820312 -28.347656 20.09375 -27.953125 C 21.375 -27.554688 22.570312 -27 23.6875 -26.28125 L 23.6875 -28.109375 L 30.96875 -28.109375 L 30.96875 0 C 30.96875 3.707031 29.769531 6.566406 27.375 8.578125 C 24.988281 10.585938 21.546875 11.59375 17.046875 11.59375 C 14.890625 11.59375 12.8125 11.378906 10.8125 10.953125 C 8.820312 10.523438 7 9.894531 5.34375 9.0625 L 7.9375 3.296875 C 9.476562 4.046875 10.984375 4.609375 12.453125 4.984375 C 13.929688 5.367188 15.410156 5.5625 16.890625 5.5625 C 19.078125 5.5625 20.738281 5.082031 21.875 4.125 C 23.007812 3.175781 23.578125 1.785156 23.578125 -0.046875 L 23.578125 -2.375 C 22.460938 -1.550781 21.25 -0.921875 19.9375 -0.484375 C 18.625 -0.0546875 17.265625 0.15625 15.859375 0.15625 Z M 8.90625 -14.25 C 8.90625 -11.976562 9.6875 -10.050781 11.25 -8.46875 C 12.8125 -6.882812 14.726562 -6.09375 17 -6.09375 C 18.320312 -6.09375 19.539062 -6.316406 20.65625 -6.765625 C 21.78125 -7.222656 22.753906 -7.84375 23.578125 -8.625 L 23.578125 -19.6875 C 22.785156 -20.476562 21.8125 -21.097656 20.65625 -21.546875 C 19.507812 -22.003906 18.304688 -22.234375 17.046875 -22.234375 C 14.785156 -22.234375 12.863281 -21.457031 11.28125 -19.90625 C 9.695312 -18.363281 8.90625 -16.476562 8.90625 -14.25 Z M 8.90625 -14.25 "/></g></g></g><g fill="#000000" fill-opacity="1"><g transform="translate(125.574915, 205.408406)"><g><path d="M 1.625 -14.03125 C 1.625 -16.082031 2.007812 -17.992188 2.78125 -19.765625 C 3.550781 -21.546875 4.609375 -23.09375 5.953125 -24.40625 C 7.304688 -25.726562 8.898438 -26.765625 10.734375 -27.515625 C 12.566406 -28.273438 14.53125 -28.65625 16.625 -28.65625 C 18.707031 -28.65625 20.664062 -28.273438 22.5 -27.515625 C 24.332031 -26.765625 25.921875 -25.726562 27.265625 -24.40625 C 28.617188 -23.09375 29.679688 -21.546875 30.453125 -19.765625 C 31.222656 -17.992188 31.609375 -16.082031 31.609375 -14.03125 C 31.609375 -11.976562 31.222656 -10.0625 30.453125 -8.28125 C 29.679688 -6.5 28.617188 -4.957031 27.265625 -3.65625 C 25.921875 -2.363281 24.332031 -1.335938 22.5 -0.578125 C 20.664062 0.171875 18.707031 0.546875 16.625 0.546875 C 14.53125 0.546875 12.566406 0.171875 10.734375 -0.578125 C 8.898438 -1.335938 7.304688 -2.363281 5.953125 -3.65625 C 4.609375 -4.957031 3.550781 -6.5 2.78125 -8.28125 C 2.007812 -10.0625 1.625 -11.976562 1.625 -14.03125 Z M 16.625 -5.875 C 18.78125 -5.875 20.613281 -6.664062 22.125 -8.25 C 23.632812 -9.832031 24.390625 -11.757812 24.390625 -14.03125 C 24.390625 -16.332031 23.632812 -18.273438 22.125 -19.859375 C 20.613281 -21.441406 18.78125 -22.234375 16.625 -22.234375 C 14.457031 -22.234375 12.617188 -21.441406 11.109375 -19.859375 C 9.597656 -18.273438 8.84375 -16.332031 8.84375 -14.03125 C 8.84375 -11.757812 9.597656 -9.832031 11.109375 -8.25 C 12.617188 -6.664062 14.457031 -5.875 16.625 -5.875 Z M 16.625 -5.875 "/></g></g></g><g fill="#000000" fill-opacity="1"><g transform="translate(157.182507, 205.408406)"><g><path d="M 6.75 -7.9375 L 6.75 -21.90625 L 0.96875 -21.90625 L 0.96875 -28.109375 L 6.75 -28.109375 L 6.75 -35.28125 L 14.140625 -36.953125 L 14.140625 -28.109375 L 22.125 -28.109375 L 22.125 -21.90625 L 14.140625 -21.90625 L 14.140625 -9.4375 C 14.140625 -8.113281 14.425781 -7.179688 15 -6.640625 C 15.570312 -6.097656 16.578125 -5.828125 18.015625 -5.828125 C 18.703125 -5.828125 19.347656 -5.867188 19.953125 -5.953125 C 20.566406 -6.046875 21.234375 -6.21875 21.953125 -6.46875 L 21.953125 -0.4375 C 21.160156 -0.175781 20.207031 0.03125 19.09375 0.1875 C 17.976562 0.351562 17.023438 0.4375 16.234375 0.4375 C 13.109375 0.4375 10.742188 -0.269531 9.140625 -1.6875 C 7.546875 -3.113281 6.75 -5.195312 6.75 -7.9375 Z M 6.75 -7.9375 "/></g></g></g><g fill="#000000" fill-opacity="1"><g transform="translate(178.433913, 205.408406)"><g><path d="M 11.8125 0.484375 C 8.789062 0.484375 6.328125 -0.3125 4.421875 -1.90625 C 2.515625 -3.507812 1.5625 -5.585938 1.5625 -8.140625 C 1.5625 -10.804688 2.585938 -12.894531 4.640625 -14.40625 C 6.691406 -15.914062 9.515625 -16.671875 13.109375 -16.671875 C 14.265625 -16.671875 15.414062 -16.578125 16.5625 -16.390625 C 17.71875 -16.210938 18.851562 -15.945312 19.96875 -15.59375 L 19.96875 -17.59375 C 19.96875 -19.207031 19.460938 -20.425781 18.453125 -21.25 C 17.441406 -22.082031 15.96875 -22.5 14.03125 -22.5 C 12.84375 -22.5 11.554688 -22.304688 10.171875 -21.921875 C 8.785156 -21.546875 7.210938 -20.960938 5.453125 -20.171875 L 2.75 -25.625 C 4.945312 -26.632812 7.078125 -27.390625 9.140625 -27.890625 C 11.210938 -28.398438 13.253906 -28.65625 15.265625 -28.65625 C 19.046875 -28.65625 21.988281 -27.742188 24.09375 -25.921875 C 26.195312 -24.109375 27.25 -21.546875 27.25 -18.234375 L 27.25 0 L 19.96875 0 L 19.96875 -1.9375 C 18.78125 -1.113281 17.53125 -0.503906 16.21875 -0.109375 C 14.90625 0.285156 13.4375 0.484375 11.8125 0.484375 Z M 8.625 -8.3125 C 8.625 -7.226562 9.09375 -6.367188 10.03125 -5.734375 C 10.96875 -5.109375 12.210938 -4.796875 13.765625 -4.796875 C 14.984375 -4.796875 16.101562 -4.945312 17.125 -5.25 C 18.15625 -5.5625 19.101562 -6.003906 19.96875 -6.578125 L 19.96875 -10.796875 C 19.0625 -11.148438 18.113281 -11.40625 17.125 -11.5625 C 16.132812 -11.726562 15.101562 -11.8125 14.03125 -11.8125 C 12.332031 -11.8125 11.003906 -11.492188 10.046875 -10.859375 C 9.097656 -10.234375 8.625 -9.382812 8.625 -8.3125 Z M 8.625 -8.3125 "/></g></g></g><g fill="#000000" fill-opacity="1"><g transform="translate(206.75126, 205.408406)"><g><path d="M 0.15625 -5.984375 L 4.640625 -11.59375 C 6.835938 -9.6875 8.953125 -8.289062 10.984375 -7.40625 C 13.015625 -6.53125 15.160156 -6.09375 17.421875 -6.09375 C 19.765625 -6.09375 21.632812 -6.523438 23.03125 -7.390625 C 24.4375 -8.253906 25.140625 -9.40625 25.140625 -10.84375 C 25.140625 -12.132812 24.660156 -13.140625 23.703125 -13.859375 C 22.753906 -14.578125 21.164062 -15.117188 18.9375 -15.484375 L 11.4375 -16.78125 C 8.195312 -17.320312 5.738281 -18.453125 4.0625 -20.171875 C 2.394531 -21.898438 1.5625 -24.132812 1.5625 -26.875 C 1.5625 -30.394531 2.898438 -33.179688 5.578125 -35.234375 C 8.265625 -37.285156 11.890625 -38.3125 16.453125 -38.3125 C 19.191406 -38.3125 21.953125 -37.84375 24.734375 -36.90625 C 27.523438 -35.96875 29.960938 -34.671875 32.046875 -33.015625 L 27.84375 -27.1875 C 25.820312 -28.738281 23.835938 -29.878906 21.890625 -30.609375 C 19.953125 -31.347656 17.960938 -31.71875 15.921875 -31.71875 C 13.828125 -31.71875 12.148438 -31.332031 10.890625 -30.5625 C 9.640625 -29.789062 9.015625 -28.757812 9.015625 -27.46875 C 9.015625 -26.3125 9.425781 -25.410156 10.25 -24.765625 C 11.070312 -24.117188 12.457031 -23.648438 14.40625 -23.359375 L 21.53125 -22.171875 C 25.269531 -21.554688 28.082031 -20.359375 29.96875 -18.578125 C 31.851562 -16.804688 32.796875 -14.460938 32.796875 -11.546875 C 32.796875 -7.878906 31.347656 -4.945312 28.453125 -2.75 C 25.554688 -0.550781 21.703125 0.546875 16.890625 0.546875 C 13.867188 0.546875 10.890625 -0.0234375 7.953125 -1.171875 C 5.023438 -2.328125 2.425781 -3.929688 0.15625 -5.984375 Z M 0.15625 -5.984375 "/></g></g></g><g fill="#000000" fill-opacity="1"><g transform="translate(239.22188, 205.408406)"><g><path d="M 1.625 -14.03125 C 1.625 -16.082031 2.007812 -17.992188 2.78125 -19.765625 C 3.550781 -21.546875 4.609375 -23.09375 5.953125 -24.40625 C 7.304688 -25.726562 8.898438 -26.765625 10.734375 -27.515625 C 12.566406 -28.273438 14.53125 -28.65625 16.625 -28.65625 C 18.707031 -28.65625 20.664062 -28.273438 22.5 -27.515625 C 24.332031 -26.765625 25.921875 -25.726562 27.265625 -24.40625 C 28.617188 -23.09375 29.679688 -21.546875 30.453125 -19.765625 C 31.222656 -17.992188 31.609375 -16.082031 31.609375 -14.03125 C 31.609375 -11.976562 31.222656 -10.0625 30.453125 -8.28125 C 29.679688 -6.5 28.617188 -4.957031 27.265625 -3.65625 C 25.921875 -2.363281 24.332031 -1.335938 22.5 -0.578125 C 20.664062 0.171875 18.707031 0.546875 16.625 0.546875 C 14.53125 0.546875 12.566406 0.171875 10.734375 -0.578125 C 8.898438 -1.335938 7.304688 -2.363281 5.953125 -3.65625 C 4.609375 -4.957031 3.550781 -6.5 2.78125 -8.28125 C 2.007812 -10.0625 1.625 -11.976562 1.625 -14.03125 Z M 16.625 -5.875 C 18.78125 -5.875 20.613281 -6.664062 22.125 -8.25 C 23.632812 -9.832031 24.390625 -11.757812 24.390625 -14.03125 C 24.390625 -16.332031 23.632812 -18.273438 22.125 -19.859375 C 20.613281 -21.441406 18.78125 -22.234375 16.625 -22.234375 C 14.457031 -22.234375 12.617188 -21.441406 11.109375 -19.859375 C 9.597656 -18.273438 8.84375 -16.332031 8.84375 -14.03125 C 8.84375 -11.757812 9.597656 -9.832031 11.109375 -8.25 C 12.617188 -6.664062 14.457031 -5.875 16.625 -5.875 Z M 16.625 -5.875 "/></g></g></g><g fill="#000000" fill-opacity="1"><g transform="translate(270.829466, 205.408406)"><g><path d="M 0.96875 -28.109375 L 7.234375 -28.109375 L 7.234375 -30.8125 C 7.234375 -33.9375 8.148438 -36.34375 9.984375 -38.03125 C 11.816406 -39.726562 14.457031 -40.578125 17.90625 -40.578125 C 18.664062 -40.578125 19.441406 -40.53125 20.234375 -40.4375 C 21.023438 -40.34375 21.707031 -40.226562 22.28125 -40.09375 L 22.28125 -33.875 C 21.59375 -34.019531 20.988281 -34.128906 20.46875 -34.203125 C 19.945312 -34.273438 19.398438 -34.3125 18.828125 -34.3125 C 17.421875 -34.3125 16.367188 -34.003906 15.671875 -33.390625 C 14.972656 -32.785156 14.625 -31.867188 14.625 -30.640625 L 14.625 -28.109375 L 22.28125 -28.109375 L 22.28125 -21.90625 L 14.625 -21.90625 L 14.625 0 L 7.234375 0 L 7.234375 -21.90625 L 0.96875 -21.90625 Z M 0.96875 -28.109375 "/></g></g></g><g fill="#000000" fill-opacity="1"><g transform="translate(292.458433, 205.408406)"><g><path d="M 6.75 -7.9375 L 6.75 -21.90625 L 0.96875 -21.90625 L 0.96875 -28.109375 L 6.75 -28.109375 L 6.75 -35.28125 L 14.140625 -36.953125 L 14.140625 -28.109375 L 22.125 -28.109375 L 22.125 -21.90625 L 14.140625 -21.90625 L 14.140625 -9.4375 C 14.140625 -8.113281 14.425781 -7.179688 15 -6.640625 C 15.570312 -6.097656 16.578125 -5.828125 18.015625 -5.828125 C 18.703125 -5.828125 19.347656 -5.867188 19.953125 -5.953125 C 20.566406 -6.046875 21.234375 -6.21875 21.953125 -6.46875 L 21.953125 -0.4375 C 21.160156 -0.175781 20.207031 0.03125 19.09375 0.1875 C 17.976562 0.351562 17.023438 0.4375 16.234375 0.4375 C 13.109375 0.4375 10.742188 -0.269531 9.140625 -1.6875 C 7.546875 -3.113281 6.75 -5.195312 6.75 -7.9375 Z M 6.75 -7.9375 "/></g></g></g></svg>